<?xml version="1.0" encoding="UTF-8"?>
<svg version="1.1" xmlns="http://www.w3.org/2000/svg" width="500" height="500">
<path d="M0,0 L500,0 L500,500 L0,500 Z " fill="#00BF63" transform="translate(0,0)"/>
<path d="M0,0 L23,0 L23,2 L24,2 L24,3 L25,3 L25,5 L26,5 L26,6 L27,6 L27,7 L28,7 L28,9 L29,9 L29,10 L30,10 L30,12 L31,12 L31,13 L32,13 L32,14 L33,14 L33,16 L34,16 L34,17 L35,17 L35,19 L36,19 L36,20 L37,20 L37,22 L38,22 L38,23 L39,23 L39,24 L40,24 L40,26 L41,26 L41,27 L42,27 L42,29 L43,29 L43,30 L44,30 L44,31 L45,31 L45,33 L46,33 L46,34 L47,34 L47,36 L48,36 L48,37 L49,37 L49,38 L50,38 L50,40 L51,40 L51,41 L52,41 L52,43 L53,43 L53,44 L54,44 L54,45 L55,45 L55,47 L56,47 L56,48 L57,48 L57,50 L58,50 L58,51 L59,51 L59,52 L60,52 L60,54 L61,54 L61,55 L62,55 L62,57 L63,57 L63,58 L64,58 L64,59 L65,59 L65,61 L66,61 L66,62 L67,62 L67,64 L68,64 L68,65 L69,65 L69,66 L70,66 L70,68 L71,68 L71,69 L72,69 L72,71 L73,71 L73,72 L74,72 L74,73 L75,73 L75,75 L76,75 L76,76 L77,76 L77,78 L78,78 L78,79 L79,79 L79,80 L80,80 L80,82 L81,82 L81,83 L82,83 L82,85 L83,85 L83,86 L84,86 L84,87 L85,87 L85,89 L86,89 L86,90 L87,90 L87,92 L88,92 L88,93 L89,93 L89,94 L90,94 L90,96 L91,96 L91,97 L92,97 L92,99 L93,99 L93,100 L94,100 L94,101 L95,101 L95,103 L96,103 L96,104 L97,104 L97,106 L98,106 L98,107 L99,107 L99,109 L100,109 L100,110 L101,110 L101,111 L102,111 L102,113 L103,113 L103,114 L104,114 L104,116 L105,116 L105,117 L106,117 L106,118 L107,118 L107,120 L108,120 L108,121 L109,121 L109,123 L110,123 L110,124 L111,124 L111,125 L112,125 L112,127 L113,127 L113,128 L114,128 L114,130 L115,130 L115,131 L116,131 L116,132 L117,132 L117,134 L118,134 L118,135 L119,135 L119,137 L120,137 L120,138 L121,138 L121,139 L122,139 L122,141 L123,141 L123,142 L124,142 L124,144 L125,144 L125,145 L126,145 L126,146 L127,146 L127,148 L128,148 L128,149 L129,149 L129,151 L130,151 L130,152 L131,152 L131,153 L132,153 L132,155 L133,155 L133,156 L134,156 L134,158 L135,158 L135,159 L136,159 L136,160 L137,160 L137,162 L138,162 L138,163 L139,163 L139,165 L140,165 L140,166 L141,166 L141,167 L142,167 L142,169 L143,169 L143,170 L144,170 L144,172 L145,172 L145,173 L146,173 L146,174 L147,174 L147,176 L148,176 L148,177 L149,177 L149,179 L150,179 L150,180 L151,180 L151,181 L152,181 L152,183 L153,183 L153,184 L154,184 L154,186 L155,186 L155,187 L156,187 L156,189 L157,189 L157,190 L158,190 L158,191 L159,191 L159,192 L160,192 L160,0 L189,0 L189,105 L322,105 L322,0 L348,0 L348,238 L322,238 L322,128 L189,128 L189,238 L163,238 L163,237 L162,237 L162,235 L161,235 L161,234 L160,234 L160,232 L159,232 L159,231 L158,231 L158,230 L157,230 L157,228 L156,228 L156,227 L155,227 L155,225 L154,225 L154,224 L153,224 L153,223 L152,223 L152,221 L151,221 L151,220 L150,220 L150,218 L149,218 L149,217 L148,217 L148,216 L147,216 L147,214 L146,214 L146,213 L145,213 L145,211 L144,211 L144,210 L143,210 L143,209 L142,209 L142,207 L141,207 L141,206 L140,206 L140,204 L139,204 L139,203 L138,203 L138,202 L137,202 L137,200 L136,200 L136,199 L135,199 L135,197 L134,197 L134,196 L133,196 L133,195 L132,195 L132,193 L131,193 L131,192 L130,192 L130,190 L129,190 L129,189 L128,189 L128,188 L127,188 L127,186 L126,186 L126,185 L125,185 L125,183 L124,183 L124,182 L123,182 L123,181 L122,181 L122,179 L121,179 L121,178 L120,178 L120,176 L119,176 L119,175 L118,175 L118,173 L117,173 L117,172 L116,172 L116,171 L115,171 L115,169 L114,169 L114,168 L113,168 L113,166 L112,166 L112,165 L111,165 L111,164 L110,164 L110,162 L109,162 L109,161 L108,161 L108,159 L107,159 L107,158 L106,158 L106,157 L105,157 L105,155 L104,155 L104,154 L103,154 L103,152 L102,152 L102,151 L101,151 L101,150 L100,150 L100,148 L99,148 L99,147 L98,147 L98,145 L97,145 L97,144 L96,144 L96,143 L95,143 L95,141 L94,141 L94,140 L93,140 L93,138 L92,138 L92,137 L91,137 L91,136 L90,136 L90,134 L89,134 L89,133 L88,133 L88,131 L87,131 L87,130 L86,130 L86,129 L85,129 L85,127 L84,127 L84,126 L83,126 L83,124 L82,124 L82,123 L81,123 L81,122 L80,122 L80,120 L79,120 L79,119 L78,119 L78,117 L77,117 L77,116 L76,116 L76,115 L75,115 L75,113 L74,113 L74,112 L73,112 L73,110 L72,110 L72,109 L71,109 L71,108 L70,108 L70,106 L69,106 L69,105 L68,105 L68,103 L67,103 L67,102 L66,102 L66,101 L65,101 L65,99 L64,99 L64,98 L63,98 L63,96 L62,96 L62,95 L61,95 L61,94 L60,94 L60,92 L59,92 L59,91 L58,91 L58,89 L57,89 L57,88 L56,88 L56,86 L55,86 L55,85 L54,85 L54,84 L53,84 L53,82 L52,82 L52,81 L51,81 L51,79 L50,79 L50,78 L49,78 L49,77 L48,77 L48,75 L47,75 L47,74 L46,74 L46,72 L45,72 L45,71 L44,71 L44,70 L43,70 L43,68 L42,68 L42,67 L41,67 L41,65 L40,65 L40,64 L39,64 L39,63 L38,63 L38,61 L37,61 L37,60 L36,60 L36,58 L35,58 L35,57 L34,57 L34,56 L33,56 L33,54 L32,54 L32,53 L31,53 L31,51 L30,51 L30,50 L29,50 L29,49 L28,49 L28,47 L27,47 L27,46 L26,46 L26,44 L25,44 L25,238 L0,238 Z " fill="#F4F7F5" transform="translate(73,139)"/>
</svg>
